<svg width="24" height="24" viewBox="0 0 24 24" fill="none" xmlns="http://www.w3.org/2000/svg">
<path fill-rule="evenodd" clip-rule="evenodd" d="M11.1587 3.32904C11.4203 3.19996 11.7082 3.13281 12 3.13281C12.2918 3.13281 12.5797 3.19996 12.8413 3.32904L21.0292 7.37029C21.0298 7.37053 21.0303 7.37078 21.0308 7.37103C21.4702 7.58607 21.8408 7.91964 22.1007 8.33412C22.361 8.74906 22.4999 9.22855 22.5019 9.71835L22.5019 9.72134V18.3749C22.5019 19.8337 21.3066 20.9999 19.8525 20.9999H4.14937C2.69523 20.9999 1.5 19.8337 1.5 18.3749V9.72134L1.5 9.71872C1.50172 9.22919 1.64028 8.7499 1.90004 8.33498C2.15959 7.9204 2.52981 7.58658 2.96894 7.37118C2.96929 7.371 2.96965 7.37083 2.97 7.37065L11.1587 3.32904ZM20.7 8.04415L20.3681 8.7167L12.1777 4.67426C12.1777 4.67424 12.1776 4.67422 12.1776 4.6742C12.1223 4.64697 12.0616 4.63281 12 4.63281C11.9384 4.63281 11.8776 4.64698 11.8224 4.67423C11.8223 4.67424 11.8223 4.67425 11.8223 4.67426L3.63194 8.7167L3.63 8.71766C3.4416 8.80996 3.28277 8.95312 3.17144 9.13094C3.06032 9.30844 3.00095 9.51342 3 9.72282V18.3749C3 18.9871 3.5054 19.4999 4.14937 19.4999H19.8525C20.4965 19.4999 21.0019 18.9871 21.0019 18.3749V9.72308C21.0008 9.5136 20.9413 9.30857 20.83 9.13109C20.7184 8.95326 20.5594 8.81017 20.3708 8.71802L20.7 8.04415Z" fill="#21272A"/>
<path fill-rule="evenodd" clip-rule="evenodd" d="M10.7239 11.9453C11.0531 11.6893 11.4581 11.5503 11.8751 11.5503C12.2921 11.5503 12.6971 11.6893 13.0263 11.9453L19.0853 16.6581C19.4123 16.9124 19.4712 17.3836 19.2169 17.7106C18.9625 18.0375 18.4913 18.0964 18.1644 17.8421L12.1053 13.1293L12.5658 12.5373L12.1053 13.1293C12.0395 13.0781 11.9585 13.0503 11.8751 13.0503C11.7917 13.0503 11.7107 13.0781 11.6449 13.1293L11.6448 13.1293L5.5853 17.8421C5.25833 18.0964 4.78713 18.0375 4.53283 17.7105C4.27853 17.3836 4.33744 16.9124 4.66441 16.6581L10.7239 11.9453C10.7239 11.9453 10.7239 11.9453 10.7239 11.9453Z" fill="#21272A"/>
<path fill-rule="evenodd" clip-rule="evenodd" d="M21.4727 8.54723C21.7228 8.87743 21.6579 9.34785 21.3277 9.59792L14.9527 14.426C14.6225 14.6761 14.1521 14.6112 13.902 14.281C13.6519 13.9508 13.7168 13.4804 14.047 13.2303L20.422 8.40216C20.7523 8.15208 21.2227 8.21703 21.4727 8.54723Z" fill="#21272A"/>
<path fill-rule="evenodd" clip-rule="evenodd" d="M2.27641 8.54798C2.52608 8.21747 2.99641 8.15193 3.32692 8.4016L9.84255 13.3235C10.1731 13.5731 10.2386 14.0435 9.98893 14.374C9.73926 14.7045 9.26893 14.77 8.93842 14.5204L2.4228 9.59849C2.09228 9.34882 2.02674 8.87849 2.27641 8.54798Z" fill="#21272A"/>
</svg>
