<svg width="25" height="25" viewBox="0 0 25 25" fill="none" xmlns="http://www.w3.org/2000/svg">
<g clip-path="url(#clip0_1_127)">
<path d="M25.0001 12.5767C25.0001 5.62979 19.4033 -0.00146484 12.5001 -0.00146484C5.59388 9.76563e-05 -0.00299072 5.62979 -0.00299072 12.5782C-0.00299072 18.8548 4.56888 24.0579 10.5439 25.0017V16.2126H7.37201V12.5782H10.547V9.80478C10.547 6.65322 12.4142 4.9126 15.2689 4.9126C16.6376 4.9126 18.0673 5.15791 18.0673 5.15791V8.25166H16.4908C14.9392 8.25166 14.4548 9.22197 14.4548 10.2173V12.5767H17.9204L17.3673 16.211H14.4533V25.0001C20.4283 24.0563 25.0001 18.8532 25.0001 12.5767Z" fill="#21272A"/>
</g>
<defs>
<clipPath id="clip0_1_127">
<rect width="25" height="25" fill="white"/>
</clipPath>
</defs>
</svg>
