<svg width="154" height="84" viewBox="0 0 154 84" fill="none" xmlns="http://www.w3.org/2000/svg">
<path d="M152.947 59.4665C153.313 59.2837 153.085 59.8778 152.262 61.2487C151.531 62.6197 150.571 64.2191 149.383 66.0471C148.195 67.875 146.961 69.6573 145.681 71.3938C144.402 73.039 143.442 74.1358 142.802 74.6841C141.706 75.5067 140.837 75.7809 140.197 75.5067C139.101 75.0497 138.415 73.8159 138.141 71.8051C137.867 69.7944 138.095 67.3267 138.826 64.4019C139.009 63.6708 139.101 63.2595 139.101 63.1681L138.689 63.5793C138.598 63.8535 138.324 64.2648 137.867 64.8132C136.313 66.824 134.805 68.5605 133.343 70.0229C131.972 71.4852 130.921 72.3992 130.189 72.7648C128.636 73.496 127.448 73.3132 126.625 72.2164C125.894 71.1196 125.848 69.6116 126.488 67.6922C127.128 65.5901 128.224 63.6707 129.778 61.9342C131.332 60.1062 132.977 58.9181 134.714 58.3697C136.724 57.7299 138.187 58.0498 139.101 59.3294L139.375 59.6036L140.06 58.9181C140.517 58.3697 140.929 58.0955 141.294 58.0955C141.934 58.0955 142.254 58.4154 142.254 59.0552C142.254 59.238 142.163 59.6036 141.98 60.1519C141.797 60.6089 141.614 61.1573 141.431 61.7971C140.883 63.8078 140.472 65.4073 140.197 66.5955C140.015 67.7836 139.923 69.0632 139.923 70.4342C139.923 71.4395 139.923 72.125 139.923 72.4906C140.015 72.8562 140.106 73.1761 140.197 73.4503C140.38 74.0901 140.792 74.2729 141.431 73.9987C142.163 73.6331 143.396 72.3535 145.133 70.16C146.961 67.875 148.88 65.2702 150.891 62.3455C151.165 61.8885 151.439 61.5229 151.714 61.2487C151.988 60.8831 152.216 60.5632 152.399 60.289C152.582 60.0149 152.765 59.7407 152.947 59.4665ZM137.181 62.3455C137.638 61.7971 137.821 61.4772 137.73 61.3858C137.181 61.1116 136.359 61.3858 135.262 62.2084C134.165 63.031 133.16 64.082 132.246 65.3616C131.88 65.91 131.469 66.5955 131.012 67.418C130.555 68.1492 130.327 68.6062 130.327 68.789C130.327 68.9718 130.418 69.0175 130.601 68.9261C130.875 68.7433 131.378 68.2863 132.109 67.5551C132.84 66.9154 133.617 66.1385 134.439 65.2245C135.353 64.3105 136.267 63.3509 137.181 62.3455Z" fill="white"/>
<path d="M132.576 58.9179C132.85 59.0093 132.941 59.1464 132.85 59.3292C132.85 59.4206 132.713 59.512 132.439 59.6034C131.616 59.7862 130.428 60.1518 128.874 60.7002C127.32 61.2485 125.584 61.934 123.665 62.7566C121.745 63.4878 119.734 64.3104 117.632 65.2243C115.622 66.1383 113.702 67.0523 111.874 67.9662C109.315 69.2458 107.67 69.8856 106.939 69.8856L106.39 69.7485L105.979 71.8049C105.888 72.3533 105.796 72.9931 105.705 73.7243C105.614 74.5469 105.522 75.1866 105.431 75.6436C105.248 76.5576 105.111 77.7001 105.019 79.071C105.019 80.5334 105.065 81.3103 105.157 81.4017C105.339 81.4017 105.568 81.2646 105.842 80.9904C106.025 80.899 106.162 80.8076 106.253 80.7162C106.345 80.6248 106.436 80.5791 106.527 80.5791C106.619 80.5791 106.665 80.7162 106.665 80.9904C106.665 81.2646 106.573 81.5388 106.39 81.813C105.842 82.9097 105.202 83.1839 104.471 82.6355C104.105 82.4527 103.877 81.9958 103.786 81.2646C103.694 80.6248 103.648 79.4366 103.648 77.7001C103.648 75.5979 103.786 73.5415 104.06 71.5307C104.425 69.4286 105.019 66.6867 105.842 63.305C106.299 61.2942 106.847 59.1921 107.487 56.9986C108.218 54.7136 108.95 52.5201 109.681 50.4179C110.503 48.2244 111.28 46.168 112.011 44.2486C112.834 42.2379 113.611 40.5013 114.342 39.0389C115.073 37.4852 115.667 36.4798 116.124 36.0228C116.581 35.5658 117.084 35.4287 117.632 35.6115C118.272 35.7943 118.638 36.2056 118.729 36.8454C118.912 37.4852 118.775 38.2164 118.318 39.0389C117.861 39.8615 117.358 40.8212 116.81 41.918C116.261 43.0147 115.941 43.7002 115.85 43.9744C115.576 44.4314 115.393 44.7056 115.302 44.797C115.119 44.9798 114.89 45.3454 114.616 45.8938C114.342 46.4421 113.839 47.5389 113.108 49.1841C112.468 50.6464 111.829 52.2002 111.189 53.8453C110.64 55.3991 110.138 56.8615 109.681 58.2324C109.498 58.7808 109.269 59.4663 108.995 60.2889C108.721 61.02 108.447 61.7969 108.173 62.6195C107.99 63.3507 107.807 63.9905 107.624 64.5388C107.533 65.0872 107.487 65.4071 107.487 65.4985C107.487 65.7727 107.67 65.6356 108.036 65.0872C109.132 63.8077 110.32 62.4824 111.6 61.1114C112.971 59.7405 114.296 58.5066 115.576 57.4098C116.855 56.3131 117.998 55.3991 119.003 54.6679C120.009 53.9367 120.694 53.5711 121.06 53.5711C122.156 53.3883 122.613 53.7539 122.431 54.6679C122.339 54.9421 122.111 55.262 121.745 55.6276C121.471 55.9018 121.242 56.0846 121.06 56.176C120.877 56.176 120.511 56.3588 119.963 56.7244C119.506 57.0899 118.775 57.7754 117.769 58.7808C116.947 59.512 116.033 60.3803 115.027 61.3856C114.113 62.2996 113.2 63.2136 112.286 64.1276C111.372 64.9501 110.64 65.6813 110.092 66.3211C109.544 66.9609 109.269 67.2808 109.269 67.2808C109.544 67.1894 109.818 67.098 110.092 67.0066C110.458 66.8238 111.097 66.5496 112.011 66.184C113.748 65.4528 115.165 64.8587 116.261 64.4018C117.358 63.9448 118.272 63.5792 119.003 63.305C119.734 63.0308 120.329 62.8023 120.786 62.6195C121.242 62.4367 121.699 62.2539 122.156 62.0711C123.162 61.6141 124.213 61.2028 125.31 60.8372C126.498 60.4717 127.595 60.1518 128.6 59.8776C129.697 59.512 130.611 59.2378 131.342 59.055C132.073 58.8722 132.484 58.8265 132.576 58.9179Z" fill="white"/>
<path d="M107.204 59.4662C107.387 59.5576 107.479 59.6946 107.479 59.8774C107.57 59.9688 107.524 60.0145 107.341 60.0145C107.067 60.0145 106.519 60.1973 105.696 60.5629C104.965 60.8371 104.097 61.2027 103.092 61.6597C102.178 62.1167 101.218 62.6194 100.212 63.1678C99.2071 63.6247 98.3845 64.0817 97.7448 64.5387L96.7851 65.2242V66.8694C96.6023 68.4231 96.2824 70.0226 95.8254 71.6677C95.4598 73.2215 94.7743 74.9123 93.769 76.7403C93.312 77.6543 92.9007 78.3854 92.5351 78.9338C92.1695 79.5736 91.7125 80.1677 91.1641 80.7161C90.3416 81.7214 89.4276 82.4983 88.4222 83.0467C87.5082 83.5951 86.7314 83.7779 86.0916 83.5951C84.4464 83.1381 83.8981 81.7214 84.4464 79.3451C84.6292 78.3397 84.8577 77.4715 85.1319 76.7403C85.4975 76.1005 86.0459 75.1408 86.7771 73.8613C87.5083 72.5817 88.5136 71.2564 89.7932 69.8855C91.1641 68.4231 92.5351 67.1435 93.9061 66.0468L95.1399 64.95L95.0028 64.2645C94.5459 62.985 93.769 62.1167 92.6722 61.6597C91.6668 61.2027 90.1131 61.0199 88.0109 61.1113C85.1776 61.2027 83.4868 60.7914 82.9384 59.8774C81.8416 58.2323 82.5271 56.1759 84.9948 53.7081C86.0916 52.6114 87.2798 51.8345 88.5593 51.3775C89.8389 50.8291 90.9814 50.692 91.9867 50.9662C92.9007 51.149 93.4948 51.6517 93.769 52.4743C94.0432 53.2054 93.9061 53.8452 93.3577 54.3936C92.9921 54.942 92.4437 55.0791 91.7125 54.8049C91.0727 54.5307 90.1131 54.7592 88.8335 55.4904C88.3765 55.856 87.7824 56.3586 87.0513 56.9984C86.4115 57.5468 86.0916 57.9124 86.0916 58.0952C86.0916 58.1866 86.8685 58.3694 88.4222 58.6436C89.2448 58.6436 90.0217 58.735 90.7529 58.9178C91.5754 59.0092 92.2152 59.1463 92.6722 59.3291C93.4948 59.6947 94.226 60.1973 94.8657 60.8371C95.5969 61.4769 96.0539 62.2081 96.2367 63.0307C96.4195 63.2135 96.5109 63.3962 96.5109 63.579C96.6023 63.6704 96.648 63.7618 96.648 63.8532L97.0593 63.7161C97.2421 63.6247 97.4249 63.5333 97.6077 63.442C97.7905 63.3506 97.9733 63.2592 98.1561 63.1678C98.7958 62.8022 99.5727 62.3909 100.487 61.9339C101.492 61.4769 102.406 61.0656 103.229 60.7C104.143 60.3344 104.965 60.0602 105.696 59.8774C106.428 59.6033 106.93 59.4662 107.204 59.4662ZM95.1399 69.0629C95.3227 68.4231 95.4141 67.829 95.4141 67.2806C95.4141 66.7323 95.3684 66.4581 95.277 66.4581C95.0942 66.4581 94.5916 66.8237 93.769 67.5548C92.9464 68.286 92.1695 69.0629 91.4383 69.8855C89.6104 71.8962 88.148 73.9527 87.0513 76.0548C85.9545 78.2483 85.4975 79.9849 85.6803 81.2644C85.9545 82.2698 86.7314 82.4983 88.0109 81.9499C88.7421 81.6757 89.4733 81.0817 90.2045 80.1677C90.9357 79.3451 91.6211 78.3397 92.2609 77.1516C92.9007 75.9634 93.4491 74.6381 93.9061 73.1758C94.4545 71.8048 94.8657 70.4339 95.1399 69.0629Z" fill="white"/>
<path d="M84.9348 59.4665C85.3004 59.2837 85.0719 59.8778 84.2494 61.2488C83.5182 62.6197 82.5585 64.2192 81.3703 66.0471C80.1822 67.8751 78.9483 69.6573 77.6687 71.3939C76.3892 73.039 75.4295 74.1358 74.7897 74.6842C73.693 75.5068 72.8247 75.781 72.1849 75.5068C71.0881 75.0498 70.4027 73.8159 70.1285 71.8052C69.8543 69.7944 70.0828 67.3267 70.8139 64.402C70.9053 64.2192 70.951 63.945 70.951 63.5794L71.0881 63.1681L70.6768 63.5794C70.5854 63.8536 70.3113 64.2649 69.8543 64.8133C68.3005 66.824 66.7925 68.5606 65.3301 70.0229C63.9591 71.4853 62.9081 72.3993 62.1769 72.7648C60.6231 73.496 59.435 73.3132 58.6124 72.2165C57.8812 71.1197 57.8355 69.6116 58.4753 67.6923C59.1151 65.5901 60.2118 63.6708 61.7656 61.9342C63.3193 60.1063 64.9645 58.9181 66.7011 58.3697C68.7118 57.73 70.1742 58.0499 71.0881 59.3294L71.3623 59.6036L72.0478 58.9181C72.5048 58.3697 72.9161 58.0955 73.2817 58.0955C73.9215 58.0955 74.2413 58.4154 74.2413 59.0552C74.2413 59.238 74.1499 59.6036 73.9672 60.152C73.7844 60.609 73.6016 61.1574 73.4188 61.7971C72.8704 63.8079 72.4591 65.4073 72.1849 66.5955C72.0021 67.7837 71.9107 69.0632 71.9107 70.4342C71.9107 71.4396 71.9107 72.1251 71.9107 72.4907C72.0021 72.8562 72.0935 73.1761 72.1849 73.4503C72.3677 74.0901 72.779 74.2729 73.4188 73.9987C74.1499 73.6331 75.3838 72.3536 77.1204 70.16C78.9483 67.8751 80.8677 65.2703 82.8784 62.3455C83.1526 61.8885 83.4268 61.523 83.701 61.2488C83.9752 60.8832 84.2037 60.5633 84.3865 60.2891C84.5693 60.0149 84.7521 59.7407 84.9348 59.4665ZM69.1688 62.3455C69.6258 61.7972 69.8086 61.4773 69.7172 61.3859C69.1688 61.1117 68.3462 61.3859 67.2494 62.2084C66.1527 63.031 65.1473 64.0821 64.2333 65.3616C63.8677 65.91 63.4564 66.5955 62.9995 67.4181C62.5425 68.1493 62.314 68.6063 62.314 68.7891C62.314 68.9718 62.4054 68.9718 62.5882 68.7891C62.8624 68.6063 63.365 68.195 64.0962 67.5552C64.8274 66.9154 65.6043 66.1385 66.4269 65.2246C67.3408 64.3106 68.2548 63.3509 69.1688 62.3455ZM69.8543 53.9827H69.5801C69.4887 54.0741 69.443 54.1198 69.443 54.1198C69.3516 54.1198 69.2602 54.0741 69.1688 53.9827H69.0317C69.0317 53.9827 69.0317 53.8456 69.0317 53.5714C69.0317 53.48 69.0317 53.4343 69.0317 53.4343C69.1231 53.4343 69.1688 53.3886 69.1688 53.2972C70.0828 52.566 70.7682 51.9262 71.2252 51.3778C71.7736 50.8295 72.4134 50.0983 73.1446 49.1843C73.3274 49.0015 73.5102 48.773 73.693 48.4988C73.9672 48.2246 74.1956 47.9961 74.3784 47.8133C74.4698 47.7219 74.5612 47.6762 74.6526 47.6762C74.744 47.5848 74.8354 47.4934 74.9268 47.402C75.3838 47.2192 75.6123 47.402 75.6123 47.9504C75.5209 48.0418 75.4752 48.1332 75.4752 48.2246C75.4752 48.316 75.4295 48.4074 75.3381 48.4988C75.0639 48.8644 74.7897 49.23 74.5155 49.5956C74.3327 49.8698 74.1042 50.1897 73.8301 50.5553C73.3731 51.0122 72.9161 51.4235 72.4591 51.7891C72.0935 52.1547 71.5451 52.6574 70.8139 53.2972C70.6311 53.48 70.4483 53.6171 70.2656 53.7085C70.1742 53.7085 70.0371 53.7999 69.8543 53.9827Z" fill="white"/>
<path d="M64.6682 59.4665C64.9424 59.4665 64.8967 59.695 64.5311 60.152C64.2569 60.5176 63.3429 61.523 61.7892 63.1681C60.601 64.3563 59.3671 65.6359 58.0876 67.0068C56.808 68.3778 55.2542 70.1143 53.4263 72.2165C51.5983 74.1358 50.0446 75.7353 48.765 77.0148C47.4855 78.2944 46.3887 79.2541 45.4747 79.8939C44.5607 80.625 43.7382 81.082 43.007 81.2648C42.3672 81.539 41.6817 81.5847 40.9505 81.4019C38.9398 81.1277 37.6602 79.117 37.1118 75.3697C37.0204 75.0955 36.9747 74.5928 36.9747 73.8616C36.9747 73.1305 36.9747 72.3993 36.9747 71.6681C36.9747 68.9262 37.2032 66.1842 37.6602 63.4423C38.2086 60.609 39.0312 57.5929 40.128 54.394C40.9505 51.7434 41.9102 49.2757 43.007 46.9908C44.1951 44.6144 45.3833 42.5123 46.5715 40.6844C47.851 38.8564 49.1306 37.3027 50.4102 36.0231C51.6897 34.7435 52.9236 33.9209 54.1118 33.5554C54.6602 33.3726 55.2085 33.3269 55.7569 33.4183C56.3967 33.4183 56.8994 33.5097 57.265 33.6925C57.9048 33.9666 58.4075 34.515 58.773 35.3376C58.9558 35.6118 59.0472 35.886 59.0472 36.1602C59.1386 36.4344 59.1843 36.9371 59.1843 37.6682C59.1843 38.765 59.0929 39.679 58.9101 40.4102C58.7273 41.0499 58.2704 42.101 57.5392 43.5634C56.6252 45.3913 55.5284 47.2193 54.2489 49.0472C53.0607 50.7838 51.7811 52.4289 50.4102 53.9827C49.0392 55.5364 47.6226 56.9074 46.1602 58.0956C44.6978 59.2837 43.2812 60.1977 41.9102 60.8375C41.179 61.1117 40.7677 61.3859 40.6763 61.6601C40.5849 61.8429 40.4022 62.6197 40.128 63.9907C39.671 66.7326 39.4425 69.3375 39.4425 71.8052C39.4425 74.1815 39.7167 76.0552 40.2651 77.4261C40.6306 78.6143 41.1333 79.2084 41.7731 79.2084C42.3215 79.2084 43.1898 78.8428 44.3779 78.1116C44.8349 77.8374 45.2919 77.4718 45.7489 77.0148C46.2059 76.6493 46.8 76.1466 47.5312 75.5068C48.2623 74.867 49.1306 74.0444 50.136 73.0391C51.1414 72.0337 52.4209 70.7998 53.9747 69.3375C56.0768 67.2353 58.0876 65.2703 60.0069 63.4423C62.0177 61.523 63.2515 60.3805 63.7085 60.0149C64.1655 59.5579 64.4854 59.3294 64.6682 59.3294V59.4665ZM42.8699 54.1198C42.7785 54.4854 42.5957 54.9881 42.3215 55.6278C42.1387 56.1762 41.9559 56.7703 41.7731 57.4101C41.6817 57.9585 41.5446 58.4612 41.3618 58.9182C41.2704 59.2837 41.2247 59.5122 41.2247 59.6036C41.2247 59.695 41.4989 59.6036 42.0473 59.3294C42.5957 58.9638 43.2812 58.4612 44.1037 57.8214C45.4747 56.816 46.8 55.6278 48.0795 54.2569C49.4505 52.8859 50.7301 51.4693 51.9182 50.0069C53.1064 48.4531 54.1575 46.8994 55.0714 45.3456C56.0768 43.7919 56.808 42.3752 57.265 41.0956C57.722 39.8161 57.9048 38.5822 57.8134 37.3941C57.722 36.2059 57.3564 35.4747 56.7166 35.2005C56.2596 34.9263 55.437 35.0177 54.2489 35.4747C53.7919 35.7489 53.0607 36.3887 52.0553 37.3941C51.1414 38.308 50.4102 39.1763 49.8618 39.9989C48.5822 41.8268 47.3027 43.9747 46.0231 46.4424C44.8349 48.9101 43.7839 51.4693 42.8699 54.1198Z" fill="white"/>
<path d="M27.6569 60.8791C28.0603 61.4294 28.3601 62.0232 28.5561 62.6605C28.7399 63.2959 28.7915 63.8546 28.7111 64.3367L27.8828 64.472C27.9454 64.0248 27.9046 63.5178 27.7603 62.951C27.6038 62.3824 27.347 61.8547 26.9901 61.3679C26.6488 60.9022 26.3156 60.5661 25.9906 60.3596C25.6535 60.1512 25.337 60.0524 25.0411 60.0632C24.7401 60.0669 24.4697 60.1567 24.2298 60.3326C23.9405 60.5446 23.7698 60.8 23.7175 61.0986C23.6601 61.3902 23.6803 61.7063 23.7781 62.0468C23.8688 62.3925 23.9943 62.756 24.1546 63.1375C24.315 63.5189 24.4718 63.9029 24.625 64.2896C24.7712 64.6814 24.8711 65.0691 24.9247 65.4529C24.9731 65.8296 24.9394 66.1906 24.8236 66.5358C24.6957 66.8791 24.4341 67.1956 24.039 67.4852C23.6722 67.7542 23.2672 67.9046 22.8242 67.9365C22.3689 67.9666 21.9021 67.8478 21.4239 67.5801C20.9386 67.3176 20.4657 66.8724 20.0054 66.2445C19.7002 65.8282 19.4576 65.3715 19.2775 64.8743C19.0904 64.3824 18.9905 63.9132 18.9779 63.4669L19.7963 63.2737C19.8174 63.7464 19.9104 64.1988 20.0754 64.6311C20.2353 65.0563 20.4368 65.4346 20.6799 65.7662C21.0057 66.2107 21.3347 66.5336 21.6667 66.735C21.9987 66.9363 22.3187 67.0325 22.6268 67.0237C22.9226 67.0129 23.1975 66.9144 23.4515 66.7282C23.7408 66.5161 23.9141 66.2643 23.9715 65.9727C24.0238 65.6741 24.001 65.3545 23.9032 65.014C23.8003 64.6664 23.6686 64.3019 23.5083 63.9204C23.348 63.539 23.1973 63.1559 23.0563 62.7712C22.9101 62.3794 22.8128 61.9951 22.7644 61.6184C22.7038 61.2398 22.7339 60.8814 22.8548 60.5433C22.9706 60.1981 23.2225 59.8833 23.6105 59.5988C23.9703 59.335 24.3779 59.1881 24.8332 59.1581C25.2814 59.1332 25.7507 59.2555 26.2412 59.5251C26.7195 59.7928 27.1914 60.2441 27.6569 60.8791Z" fill="white"/>
<path d="M22.906 49.5775L14.6022 50.4139L14.9258 53.6258L14.0902 53.71L13.3457 46.3201L14.1814 46.2359L14.5049 49.4478L22.8087 48.6113L22.906 49.5775Z" fill="white"/>
<path d="M25.242 35.9797C24.7098 37.0242 23.9907 37.6937 23.0847 37.988C22.1787 38.2824 21.1372 38.1298 19.9602 37.53L15.2717 35.1411L15.7125 34.2759L20.366 36.647C21.3325 37.1394 22.1569 37.2846 22.8392 37.0824C23.5215 36.8802 24.0653 36.3816 24.4704 35.5865C24.8794 34.7837 24.9652 34.0468 24.7278 33.376C24.4903 32.7052 23.8883 32.1235 22.9217 31.631L18.2683 29.26L18.6972 28.4182L23.3857 30.8071C24.5627 31.4068 25.2984 32.1597 25.5928 33.0657C25.8912 33.9639 25.7742 34.9352 25.242 35.9797Z" fill="white"/>
<path d="M32.1878 27.0604L28.0376 18.8657L31.374 17.176C32.2481 16.7333 33.1019 16.5216 33.9353 16.5408C34.7726 16.5482 35.5308 16.7673 36.2099 17.1981C36.8889 17.6289 37.432 18.2462 37.8391 19.0501C38.2462 19.8539 38.4225 20.657 38.3679 21.4593C38.3134 22.2617 38.0433 23.0064 37.5578 23.6936C37.0762 24.369 36.3983 24.928 35.5242 25.3707L32.1878 27.0604ZM32.6746 25.8724L35.0979 24.6452C35.8237 24.2776 36.3808 23.8189 36.7692 23.2692C37.1615 22.7077 37.3794 22.1021 37.4231 21.4525C37.4627 20.795 37.3165 20.1385 36.9845 19.4829C36.6486 18.8195 36.2058 18.3132 35.6563 17.9639C35.1068 17.6146 34.4916 17.4358 33.8108 17.4276C33.1339 17.4076 32.4325 17.5814 31.7067 17.949L29.2834 19.1762L32.6746 25.8724Z" fill="white"/>
<path d="M46.5754 22.6776L46.7959 13.4946L47.7666 13.5179L47.5462 22.7009L46.5754 22.6776Z" fill="white"/>
<path d="M58.212 25.8483C57.618 25.4951 57.1235 25.0687 56.7285 24.5691C56.3454 24.0665 56.0732 23.5229 55.9119 22.9385C55.7626 22.3509 55.7257 21.7539 55.8014 21.1475C55.889 20.538 56.105 19.9438 56.4493 19.3648C56.7936 18.7859 57.2103 18.3161 57.6995 17.9556C58.2007 17.5921 58.7428 17.3394 59.3259 17.1976C59.9209 17.0527 60.5285 17.0323 61.1485 17.1364C61.773 17.233 62.3861 17.4602 62.9876 17.8179C63.5816 18.1711 64.0701 18.5991 64.4532 19.1017C64.8407 19.5967 65.1114 20.1343 65.2652 20.7143C65.4265 21.2988 65.4634 21.8958 65.3757 22.5053C65.2956 23.1192 65.0834 23.7157 64.7391 24.2947C64.3948 24.8736 63.9721 25.3449 63.4709 25.7084C62.9772 26.0764 62.4351 26.3291 61.8445 26.4665C61.2614 26.6083 60.6576 26.6309 60.0331 26.5343C59.4131 26.4302 58.8061 26.2016 58.212 25.8483ZM58.6547 25.1039C59.1284 25.3856 59.6115 25.566 60.1039 25.6451C60.6083 25.7211 61.0943 25.6997 61.562 25.5809C62.0416 25.459 62.4804 25.2517 62.8783 24.9591C63.2807 24.6589 63.6228 24.272 63.9045 23.7983C64.1862 23.3246 64.3606 22.8431 64.4277 22.3537C64.4993 21.8568 64.4718 21.3723 64.3455 20.9002C64.2311 20.4251 64.0178 19.9878 63.7057 19.5884C63.4056 19.186 63.0186 18.844 62.5449 18.5623C62.0712 18.2806 61.5822 18.1017 61.0778 18.0257C60.5778 17.9421 60.088 17.9613 59.6084 18.0832C59.1408 18.202 58.702 18.4093 58.2921 18.705C57.8941 18.9976 57.5543 19.3808 57.2726 19.8545C56.9954 20.3206 56.821 20.8022 56.7494 21.2991C56.6854 21.8004 56.7105 22.2887 56.8249 22.7638C56.9513 23.2359 57.1683 23.6754 57.476 24.0823C57.7881 24.4817 58.181 24.8222 58.6547 25.1039Z" fill="white"/>
</svg>
