<svg width="121" height="66" viewBox="0 0 121 66" fill="none" xmlns="http://www.w3.org/2000/svg">
<path d="M120.041 46.6723C120.328 46.5288 120.149 46.9951 119.503 48.0711C118.929 49.1471 118.176 50.4024 117.244 51.8371C116.311 53.2718 115.343 54.6706 114.338 56.0335C113.334 57.3247 112.581 58.1855 112.079 58.6159C111.218 59.2615 110.537 59.4767 110.034 59.2615C109.174 58.9029 108.636 57.9345 108.42 56.3563C108.205 54.7782 108.385 52.8414 108.958 50.5459C109.102 49.972 109.174 49.6492 109.174 49.5775L108.851 49.9003C108.779 50.1155 108.564 50.4383 108.205 50.8687C106.986 52.4469 105.802 53.8098 104.654 54.9575C103.578 56.1053 102.753 56.8226 102.18 57.1095C100.96 57.6834 100.028 57.5399 99.382 56.6791C98.8081 55.8183 98.7722 54.6347 99.2744 53.1283C99.7765 51.4784 100.637 49.972 101.857 48.6091C103.076 47.1744 104.367 46.2419 105.73 45.8115C107.309 45.3094 108.456 45.5604 109.174 46.5647L109.389 46.7799L109.927 46.2419C110.285 45.8115 110.608 45.5963 110.895 45.5963C111.397 45.5963 111.648 45.8474 111.648 46.3495C111.648 46.493 111.577 46.7799 111.433 47.2103C111.29 47.569 111.146 47.9994 111.003 48.5015C110.572 50.0796 110.25 51.335 110.034 52.2675C109.891 53.2001 109.819 54.2043 109.819 55.2803C109.819 56.0694 109.819 56.6074 109.819 56.8943C109.891 57.1813 109.963 57.4323 110.034 57.6475C110.178 58.1497 110.501 58.2931 111.003 58.0779C111.577 57.791 112.545 56.7867 113.908 55.0651C115.343 53.2718 116.849 51.2274 118.427 48.9319C118.642 48.5732 118.858 48.2863 119.073 48.0711C119.288 47.7842 119.467 47.5331 119.611 47.3179C119.754 47.1027 119.898 46.8875 120.041 46.6723ZM107.667 48.9319C108.026 48.5015 108.169 48.2504 108.098 48.1787C107.667 47.9635 107.022 48.1787 106.161 48.8243C105.3 49.4699 104.511 50.2948 103.794 51.2991C103.507 51.7295 103.184 52.2675 102.825 52.9131C102.467 53.487 102.287 53.8457 102.287 53.9891C102.287 54.1326 102.359 54.1685 102.502 54.0967C102.718 53.9533 103.112 53.5946 103.686 53.0207C104.26 52.5186 104.87 51.9088 105.515 51.1915C106.233 50.4742 106.95 49.721 107.667 48.9319Z" fill="#DFC8BB"/>
<path d="M104.053 46.2419C104.268 46.3137 104.339 46.4213 104.268 46.5647C104.268 46.6365 104.16 46.7082 103.945 46.7799C103.299 46.9234 102.367 47.2103 101.147 47.6407C99.9278 48.0711 98.5649 48.6091 97.0585 49.2547C95.5521 49.8286 93.974 50.4742 92.3241 51.1915C90.7459 51.9089 89.2395 52.6262 87.8049 53.3435C85.7963 54.3478 84.5051 54.8499 83.9313 54.8499L83.5009 54.7423L83.1781 56.3564C83.1063 56.7868 83.0346 57.2889 82.9629 57.8628C82.8911 58.5084 82.8194 59.0105 82.7477 59.3692C82.6042 60.0865 82.4966 60.9832 82.4249 62.0592C82.4249 63.2069 82.4607 63.8166 82.5325 63.8884C82.6759 63.8884 82.8553 63.7808 83.0705 63.5656C83.2139 63.4938 83.3215 63.4221 83.3933 63.3504C83.465 63.2786 83.5367 63.2428 83.6085 63.2428C83.6802 63.2428 83.7161 63.3504 83.7161 63.5656C83.7161 63.7808 83.6443 63.996 83.5009 64.2112C83.0705 65.072 82.5683 65.2872 81.9944 64.8568C81.7075 64.7133 81.5282 64.3546 81.4564 63.7808C81.3847 63.2786 81.3488 62.3461 81.3488 60.9832C81.3488 59.3333 81.4564 57.7193 81.6716 56.1412C81.9586 54.4913 82.4249 52.3393 83.0705 49.6851C83.4291 48.107 83.8595 46.4571 84.3617 44.7355C84.9355 42.9422 85.5094 41.2206 86.0833 39.5707C86.7289 37.8491 87.3386 36.2351 87.9125 34.7287C88.5581 33.1505 89.1678 31.7876 89.7417 30.6399C90.3155 29.4204 90.7818 28.6313 91.1405 28.2727C91.4991 27.914 91.8937 27.8064 92.3241 27.9499C92.8262 28.0933 93.1132 28.4161 93.1849 28.9183C93.3284 29.4204 93.2208 29.9943 92.8621 30.6399C92.5034 31.2855 92.1089 32.0387 91.6785 32.8995C91.2481 33.7603 90.997 34.2983 90.9253 34.5135C90.7101 34.8721 90.5666 35.0873 90.4949 35.1591C90.3514 35.3025 90.1721 35.5895 89.9569 36.0199C89.7417 36.4503 89.3471 37.3111 88.7733 38.6023C88.2711 39.75 87.769 40.9695 87.2669 42.2607C86.8365 43.4802 86.4419 44.6279 86.0833 45.7039C85.9398 46.1343 85.7605 46.6723 85.5453 47.3179C85.3301 47.8918 85.1149 48.5015 84.8997 49.1471C84.7562 49.721 84.6127 50.2231 84.4693 50.6535C84.3975 51.0839 84.3617 51.335 84.3617 51.4067C84.3617 51.6219 84.5051 51.5143 84.7921 51.0839C85.6529 50.0797 86.5854 49.0395 87.5897 47.9635C88.6657 46.8875 89.7058 45.9191 90.7101 45.0583C91.7144 44.1975 92.611 43.4802 93.4001 42.9063C94.1892 42.3324 94.7272 42.0455 95.0141 42.0455C95.8749 41.902 96.2336 42.189 96.0901 42.9063C96.0184 43.1215 95.839 43.3726 95.5521 43.6595C95.3369 43.8747 95.1576 44.0182 95.0141 44.0899C94.8706 44.0899 94.5837 44.2334 94.1533 44.5203C93.7946 44.8072 93.2208 45.3452 92.4317 46.1343C91.7861 46.7082 91.0687 47.3897 90.2797 48.1787C89.5623 48.8961 88.845 49.6134 88.1277 50.3307C87.4103 50.9763 86.8365 51.5502 86.4061 52.0523C85.9757 52.5545 85.7605 52.8055 85.7605 52.8055C85.9757 52.7338 86.1909 52.6621 86.4061 52.5903C86.693 52.4469 87.1951 52.2317 87.9125 51.9447C89.2754 51.3709 90.3873 50.9046 91.2481 50.5459C92.1089 50.1873 92.8262 49.9003 93.4001 49.6851C93.974 49.4699 94.4402 49.2906 94.7989 49.1471C95.1576 49.0037 95.5162 48.8602 95.8749 48.7167C96.664 48.3581 97.4889 48.0353 98.3497 47.7483C99.2822 47.4614 100.143 47.2103 100.932 46.9951C101.793 46.7082 102.51 46.493 103.084 46.3495C103.658 46.2061 103.981 46.1702 104.053 46.2419Z" fill="#DFC8BB"/>
<path d="M84.1397 46.6723C84.2832 46.744 84.3549 46.8516 84.3549 46.9951C84.4267 47.0668 84.3908 47.1027 84.2473 47.1027C84.0321 47.1027 83.6017 47.2462 82.9561 47.5331C82.3822 47.7483 81.7008 48.0353 80.9117 48.3939C80.1944 48.7526 79.4412 49.1471 78.6521 49.5775C77.863 49.9362 77.2174 50.2949 76.7153 50.6535L75.9621 51.1915V52.4827C75.8186 53.7022 75.5676 54.9575 75.2089 56.2488C74.922 57.4682 74.384 58.7953 73.5949 60.23C73.2362 60.9473 72.9134 61.5212 72.6265 61.9516C72.3395 62.4537 71.9809 62.92 71.5505 63.3504C70.9049 64.1394 70.1875 64.7492 69.3985 65.1796C68.6811 65.61 68.0714 65.7534 67.5693 65.61C66.2781 65.2513 65.8477 64.1394 66.2781 62.2744C66.4215 61.4853 66.6009 60.8038 66.8161 60.23C67.103 59.7278 67.5334 58.9746 68.1073 57.9704C68.6811 56.9661 69.4702 55.9259 70.4745 54.8499C71.5505 53.7022 72.6265 52.6979 73.7025 51.8371L74.6709 50.9763L74.5633 50.4383C74.2046 49.4341 73.5949 48.7526 72.7341 48.3939C71.945 48.0353 70.7255 47.8918 69.0757 47.9635C66.8519 48.0353 65.5249 47.7124 65.0945 46.9951C64.2336 45.7039 64.7717 44.0899 66.7085 42.1531C67.5693 41.2923 68.5018 40.6826 69.5061 40.3239C70.5103 39.8935 71.407 39.7859 72.1961 40.0011C72.9134 40.1446 73.3797 40.5391 73.5949 41.1847C73.8101 41.7586 73.7025 42.2607 73.2721 42.6911C72.9851 43.1215 72.5547 43.2291 71.9809 43.0139C71.4787 42.7987 70.7255 42.978 69.7213 43.5519C69.3626 43.8388 68.8963 44.2334 68.3225 44.7355C67.8203 45.1659 67.5693 45.4528 67.5693 45.5963C67.5693 45.668 68.179 45.8115 69.3985 46.0267C70.0441 46.0267 70.6538 46.0984 71.2277 46.2419C71.8733 46.3136 72.3754 46.4212 72.7341 46.5647C73.3797 46.8517 73.9535 47.2462 74.4557 47.7483C75.0296 48.2505 75.3882 48.8243 75.5317 49.4699C75.6752 49.6134 75.7469 49.7569 75.7469 49.9003C75.8186 49.9721 75.8545 50.0438 75.8545 50.1155L76.1773 50.0079C76.3208 49.9362 76.4642 49.8645 76.6077 49.7927C76.7512 49.721 76.8946 49.6493 77.0381 49.5775C77.5402 49.2906 78.15 48.9678 78.8673 48.6091C79.6564 48.2505 80.3737 47.9277 81.0193 47.6407C81.7366 47.3538 82.3822 47.1386 82.9561 46.9951C83.53 46.7799 83.9245 46.6723 84.1397 46.6723ZM74.6709 54.2043C74.8144 53.7022 74.8861 53.2359 74.8861 52.8055C74.8861 52.3751 74.8502 52.1599 74.7785 52.1599C74.635 52.1599 74.2405 52.4469 73.5949 53.0207C72.9493 53.5946 72.3395 54.2043 71.7657 54.8499C70.331 56.4281 69.1833 58.0421 68.3225 59.692C67.4617 61.4136 67.103 62.7765 67.2465 63.7808C67.4617 64.5698 68.0714 64.7492 69.0757 64.3188C69.6495 64.1036 70.2234 63.6373 70.7973 62.92C71.3711 62.2744 71.9091 61.4853 72.4113 60.5528C72.9134 59.6202 73.3438 58.5801 73.7025 57.4324C74.1329 56.3564 74.4557 55.2803 74.6709 54.2043Z" fill="#DFC8BB"/>
<path d="M66.6614 46.6723C66.9483 46.5288 66.769 46.9951 66.1234 48.0711C65.5495 49.1471 64.7963 50.4024 63.8638 51.8371C62.9312 53.2718 61.9628 54.6706 60.9586 56.0335C59.9543 57.3247 59.2011 58.1855 58.699 58.6159C57.8382 59.2615 57.1567 59.4767 56.6545 59.2615C55.7937 58.9029 55.2557 57.9345 55.0405 56.3563C54.8253 54.7782 55.0047 52.8414 55.5785 50.5459C55.6503 50.4024 55.6861 50.1872 55.6861 49.9003L55.7937 49.5775L55.4709 49.9003C55.3992 50.1155 55.184 50.4383 54.8253 50.8687C53.6059 52.4468 52.4223 53.8098 51.2745 54.9575C50.1985 56.1053 49.3736 56.8226 48.7997 57.1095C47.5802 57.6834 46.6477 57.5399 46.0021 56.6791C45.4282 55.8183 45.3924 54.6347 45.8945 53.1283C46.3966 51.4784 47.2574 49.972 48.4769 48.6091C49.6964 47.1744 50.9876 46.2419 52.3505 45.8115C53.9287 45.3094 55.0764 45.5604 55.7937 46.5647L56.0089 46.7799L56.5469 46.2419C56.9056 45.8115 57.2284 45.5963 57.5154 45.5963C58.0175 45.5963 58.2686 45.8474 58.2686 46.3495C58.2686 46.493 58.1968 46.7799 58.0534 47.2103C57.9099 47.569 57.7664 47.9994 57.623 48.5015C57.1925 50.0796 56.8697 51.335 56.6545 52.2675C56.5111 53.2001 56.4393 54.2043 56.4393 55.2803C56.4393 56.0694 56.4393 56.6074 56.4393 56.8943C56.5111 57.1813 56.5828 57.4323 56.6545 57.6475C56.798 58.1497 57.1208 58.2931 57.623 58.0779C58.1968 57.791 59.1652 56.7867 60.5282 55.0651C61.9628 53.2718 63.4692 51.2274 65.0474 48.9319C65.2626 48.5732 65.4778 48.2863 65.693 48.0711C65.9082 47.7842 66.0875 47.5331 66.231 47.3179C66.3744 47.1027 66.5179 46.8875 66.6614 46.6723ZM54.2873 48.9319C54.646 48.5015 54.7895 48.2504 54.7177 48.1787C54.2873 47.9635 53.6417 48.1787 52.7809 48.8243C51.9201 49.4699 51.1311 50.2948 50.4137 51.2991C50.1268 51.7295 49.804 52.2675 49.4453 52.9131C49.0867 53.487 48.9073 53.8457 48.9073 53.9891C48.9073 54.1326 48.9791 54.1326 49.1225 53.9891C49.3377 53.8457 49.7323 53.5229 50.3061 53.0207C50.88 52.5186 51.4897 51.9088 52.1353 51.1915C52.8527 50.4742 53.57 49.721 54.2873 48.9319ZM54.8253 42.3683H54.6101C54.5384 42.44 54.5025 42.4759 54.5025 42.4759C54.4308 42.4759 54.3591 42.44 54.2873 42.3683H54.1797C54.1797 42.3683 54.1797 42.2607 54.1797 42.0455C54.1797 41.9737 54.1797 41.9379 54.1797 41.9379C54.2515 41.9379 54.2873 41.902 54.2873 41.8303C55.0047 41.2564 55.5427 40.7543 55.9013 40.3239C56.3317 39.8935 56.8339 39.3196 57.4078 38.6023C57.5512 38.4588 57.6947 38.2795 57.8382 38.0643C58.0534 37.8491 58.2327 37.6697 58.3762 37.5263C58.4479 37.4545 58.5196 37.4187 58.5914 37.4187C58.6631 37.3469 58.7348 37.2752 58.8066 37.2035C59.1652 37.06 59.3446 37.2035 59.3446 37.6339C59.2728 37.7056 59.237 37.7773 59.237 37.8491C59.237 37.9208 59.2011 37.9925 59.1294 38.0643C58.9142 38.3512 58.699 38.6381 58.4838 38.9251C58.3403 39.1403 58.161 39.3913 57.9458 39.6783C57.5871 40.0369 57.2284 40.3597 56.8697 40.6467C56.5828 40.9336 56.1524 41.3281 55.5785 41.8303C55.4351 41.9737 55.2916 42.0813 55.1481 42.1531C55.0764 42.1531 54.9688 42.2248 54.8253 42.3683Z" fill="#DFC8BB"/>
<path d="M50.755 46.6723C50.9702 46.6723 50.9344 46.8516 50.6474 47.2103C50.4322 47.4972 49.7149 48.2863 48.4954 49.5775C47.5629 50.51 46.5945 51.5143 45.5902 52.5903C44.5859 53.6663 43.3665 55.0293 41.9318 56.6791C40.4971 58.1855 39.2776 59.4409 38.2734 60.4451C37.2691 61.4494 36.4083 62.2026 35.691 62.7047C34.9736 63.2786 34.328 63.6373 33.7542 63.7808C33.252 63.996 32.714 64.0318 32.1402 63.8884C30.562 63.6732 29.5577 62.095 29.1273 59.1539C29.0556 58.9387 29.0197 58.5442 29.0197 57.9703C29.0197 57.3965 29.0197 56.8226 29.0197 56.2487C29.0197 54.0967 29.1991 51.9447 29.5577 49.7927C29.9881 47.569 30.6338 45.2018 31.4946 42.6911C32.1402 40.6108 32.8934 38.674 33.7542 36.8807C34.6867 35.0156 35.6192 33.3657 36.5518 31.931C37.556 30.4964 38.5603 29.2769 39.5646 28.2726C40.5689 27.2684 41.5373 26.6228 42.4698 26.3358C42.9002 26.1924 43.3306 26.1565 43.761 26.2282C44.2631 26.2282 44.6577 26.3 44.9446 26.4434C45.4467 26.6586 45.8413 27.089 46.1282 27.7346C46.2717 27.9498 46.3434 28.165 46.3434 28.3802C46.4151 28.5954 46.451 28.99 46.451 29.5638C46.451 30.4246 46.3793 31.142 46.2358 31.7158C46.0923 32.218 45.7337 33.0429 45.1598 34.1906C44.4425 35.6253 43.5817 37.06 42.5774 38.4947C41.6449 39.8576 40.6406 41.1488 39.5646 42.3683C38.4886 43.5877 37.3767 44.6638 36.229 45.5963C35.0812 46.5288 33.9694 47.2462 32.8934 47.7483C32.3195 47.9635 31.9967 48.1787 31.925 48.3939C31.8532 48.5374 31.7098 49.1471 31.4946 50.2231C31.1359 52.3751 30.9566 54.4195 30.9566 56.3563C30.9566 58.2214 31.1718 59.6919 31.6022 60.7679C31.8891 61.7005 32.2836 62.1668 32.7858 62.1668C33.2162 62.1668 33.8976 61.8798 34.8302 61.3059C35.1888 61.0907 35.5475 60.8038 35.9062 60.4451C36.2648 60.1582 36.7311 59.7637 37.305 59.2615C37.8788 58.7594 38.5603 58.1138 39.3494 57.3247C40.1385 56.5357 41.1427 55.5673 42.3622 54.4195C44.0121 52.7696 45.5902 51.2274 47.0966 49.7927C48.6747 48.2863 49.6432 47.3896 50.0018 47.1027C50.3605 46.744 50.6116 46.5647 50.755 46.5647V46.6723ZM33.6466 42.4759C33.5748 42.7628 33.4314 43.1573 33.2162 43.6595C33.0727 44.0899 32.9292 44.5561 32.7858 45.0583C32.714 45.4887 32.6064 45.8832 32.463 46.2419C32.3912 46.5288 32.3554 46.7082 32.3554 46.7799C32.3554 46.8516 32.5706 46.7799 33.001 46.5647C33.4314 46.2778 33.9694 45.8832 34.615 45.3811C35.691 44.592 36.7311 43.6595 37.7354 42.5835C38.8114 41.5075 39.8157 40.3956 40.7482 39.2479C41.6807 38.0284 42.5057 36.8089 43.223 35.5895C44.0121 34.37 44.5859 33.2581 44.9446 32.2538C45.3033 31.2496 45.4467 30.2812 45.375 29.3486C45.3033 28.4161 45.0163 27.8422 44.5142 27.627C44.1555 27.4118 43.5099 27.4836 42.5774 27.8422C42.2187 28.0574 41.6449 28.5596 40.8558 29.3486C40.1385 30.066 39.5646 30.7474 39.1342 31.393C38.1299 32.8277 37.1256 34.5134 36.1214 36.4503C35.1888 38.3871 34.3639 40.3956 33.6466 42.4759Z" fill="#DFC8BB"/>
<path d="M21.7066 47.7813C22.0232 48.2132 22.2585 48.6792 22.4123 49.1794C22.5566 49.6781 22.5971 50.1167 22.534 50.495L21.8839 50.6012C21.9331 50.2502 21.901 49.8523 21.7877 49.4075C21.6649 48.9612 21.4634 48.547 21.1833 48.1649C20.9154 47.7994 20.6539 47.5357 20.3988 47.3736C20.1342 47.21 19.8858 47.1325 19.6536 47.1409C19.4174 47.1438 19.2051 47.2143 19.0168 47.3523C18.7898 47.5188 18.6558 47.7192 18.6148 47.9536C18.5697 48.1824 18.5856 48.4305 18.6623 48.6977C18.7335 48.9691 18.832 49.2544 18.9578 49.5538C19.0837 49.8532 19.2067 50.1546 19.327 50.458C19.4418 50.7655 19.5202 51.0699 19.5622 51.3711C19.6002 51.6667 19.5738 51.95 19.4829 52.221C19.3825 52.4904 19.1772 52.7388 18.8671 52.9661C18.5792 53.1772 18.2613 53.2953 17.9136 53.3204C17.5563 53.3439 17.19 53.2507 16.8146 53.0406C16.4337 52.8346 16.0626 52.4851 15.7013 51.9923C15.4618 51.6656 15.2714 51.3072 15.13 50.917C14.9832 50.5308 14.9048 50.1626 14.8949 49.8123L15.5372 49.6607C15.5537 50.0317 15.6268 50.3868 15.7563 50.726C15.8817 51.0597 16.0399 51.3567 16.2307 51.617C16.4864 51.9658 16.7446 52.2193 17.0052 52.3773C17.2657 52.5353 17.5169 52.6108 17.7587 52.6039C17.9909 52.5954 18.2066 52.5181 18.406 52.372C18.633 52.2055 18.7691 52.0079 18.8141 51.779C18.8551 51.5446 18.8373 51.2938 18.7605 51.0266C18.6797 50.7538 18.5764 50.4677 18.4506 50.1683C18.3248 49.8689 18.2065 49.5683 18.0958 49.2663C17.981 48.9588 17.9047 48.6572 17.8667 48.3615C17.8191 48.0644 17.8428 47.7831 17.9377 47.5177C18.0285 47.2468 18.2262 46.9997 18.5308 46.7764C18.8132 46.5694 19.1331 46.4541 19.4904 46.4305C19.8422 46.411 20.2105 46.507 20.5955 46.7186C20.9709 46.9287 21.3412 47.2829 21.7066 47.7813Z" fill="#DFC8BB"/>
<path d="M17.9779 38.9112L11.4606 39.5677L11.7145 42.0885L11.0587 42.1546L10.4745 36.3547L11.1303 36.2886L11.3842 38.8094L17.9015 38.1529L17.9779 38.9112Z" fill="#DFC8BB"/>
<path d="M19.8113 28.2388C19.3936 29.0586 18.8292 29.584 18.1181 29.815C17.407 30.0461 16.5896 29.9262 15.6658 29.4556L11.986 27.5806L12.332 26.9015L15.9843 28.7625C16.7429 29.149 17.3899 29.2629 17.9254 29.1042C18.4609 28.9455 18.8877 28.5542 19.2056 27.9302C19.5267 27.3001 19.594 26.7217 19.4076 26.1952C19.2212 25.6687 18.7488 25.2122 17.9902 24.8257L14.3379 22.9648L14.6745 22.3041L18.3543 24.179C19.2781 24.6497 19.8555 25.2406 20.0866 25.9517C20.3207 26.6566 20.229 27.419 19.8113 28.2388Z" fill="#DFC8BB"/>
<path d="M25.2627 21.2383L22.0054 14.8067L24.624 13.4805C25.3101 13.1331 25.9801 12.9669 26.6343 12.982C27.2914 12.9878 27.8865 13.1598 28.4194 13.4979C28.9524 13.836 29.3786 14.3205 29.6981 14.9514C30.0177 15.5823 30.156 16.2126 30.1132 16.8423C30.0704 17.472 29.8584 18.0565 29.4774 18.5959C29.0993 19.1259 28.5673 19.5647 27.8813 19.9122L25.2627 21.2383ZM25.6448 20.3059L27.5467 19.3427C28.1164 19.0542 28.5536 18.6943 28.8585 18.2628C29.1663 17.8221 29.3374 17.3468 29.3716 16.8369C29.4027 16.3209 29.288 15.8056 29.0274 15.2911C28.7637 14.7704 28.4162 14.373 27.9849 14.0989C27.5536 13.8247 27.0708 13.6844 26.5365 13.678C26.0052 13.6623 25.4547 13.7987 24.8851 14.0872L22.9832 15.0504L25.6448 20.3059Z" fill="#DFC8BB"/>
<path d="M36.5549 17.7987L36.7279 10.5914L37.4898 10.6097L37.3168 17.817L36.5549 17.7987Z" fill="#DFC8BB"/>
<path d="M45.6879 20.287C45.2217 20.0098 44.8336 19.6751 44.5235 19.283C44.2229 18.8886 44.0092 18.462 43.8826 18.0032C43.7654 17.5421 43.7365 17.0735 43.7959 16.5976C43.8646 16.1192 44.0342 15.6529 44.3044 15.1984C44.5746 14.744 44.9017 14.3754 45.2856 14.0924C45.679 13.8071 46.1045 13.6088 46.5621 13.4975C47.0291 13.3838 47.506 13.3678 47.9926 13.4495C48.4828 13.5253 48.9639 13.7036 49.436 13.9843C49.9022 14.2616 50.2857 14.5974 50.5863 14.9919C50.8904 15.3805 51.1029 15.8024 51.2236 16.2576C51.3502 16.7163 51.3791 17.1849 51.3104 17.6632C51.2475 18.1451 51.0809 18.6132 50.8107 19.0676C50.5405 19.522 50.2087 19.8919 49.8153 20.1772C49.4279 20.4661 49.0024 20.6644 48.5389 20.7722C48.0812 20.8835 47.6073 20.9012 47.1172 20.8254C46.6305 20.7438 46.1541 20.5643 45.6879 20.287ZM46.0353 19.7028C46.4071 19.9239 46.7863 20.0655 47.1727 20.1275C47.5686 20.1872 47.9501 20.1704 48.3171 20.0771C48.6935 19.9815 49.0379 19.8188 49.3502 19.5891C49.6661 19.3536 49.9345 19.0499 50.1556 18.6781C50.3767 18.3063 50.5136 17.9284 50.5663 17.5443C50.6224 17.1543 50.6009 16.774 50.5017 16.4035C50.412 16.0306 50.2446 15.6874 49.9996 15.3739C49.764 15.0581 49.4604 14.7897 49.0886 14.5686C48.7168 14.3475 48.333 14.2071 47.9371 14.1474C47.5447 14.0818 47.1603 14.0969 46.7839 14.1925C46.4168 14.2858 46.0725 14.4485 45.7507 14.6806C45.4384 14.9102 45.1717 15.2109 44.9506 15.5827C44.733 15.9486 44.5961 16.3266 44.5399 16.7165C44.4897 17.11 44.5094 17.4932 44.5992 17.8662C44.6984 18.2367 44.8687 18.5816 45.1102 18.901C45.3552 19.2144 45.6636 19.4817 46.0353 19.7028Z" fill="#DFC8BB"/>
</svg>
