<svg width="25" height="25" viewBox="0 0 25 25" fill="none" xmlns="http://www.w3.org/2000/svg">
<g clip-path="url(#clip0_1_128)">
<path d="M12.5 2.51595e-06C9.58548 -0.00184586 6.76191 1.01481 4.51753 2.87418C2.27314 4.73355 0.749042 7.31874 0.208749 10.1828C-0.331545 13.0468 0.145938 16.0096 1.55864 18.5588C2.97133 21.1081 5.23044 23.0836 7.94533 24.1438C7.83595 23.1547 7.73595 21.6344 7.98751 20.5547C8.21564 19.5781 9.45314 14.3406 9.45314 14.3406C9.45314 14.3406 9.0797 13.5922 9.0797 12.4859C9.0797 10.7469 10.0875 9.45 11.3422 9.45C12.4078 9.45 12.9235 10.25 12.9235 11.2109C12.9235 12.2828 12.2406 13.8859 11.8875 15.3719C11.5938 16.6156 12.5125 17.6313 13.7391 17.6313C15.961 17.6313 17.6688 15.2875 17.6688 11.9063C17.6688 8.91406 15.5172 6.82188 12.4469 6.82188C8.89064 6.82188 6.80314 9.48906 6.80314 12.2453C6.80314 13.3203 7.2172 14.4719 7.73283 15.0984C7.77723 15.1457 7.80863 15.2036 7.82397 15.2666C7.8393 15.3296 7.83805 15.3955 7.82033 15.4578C7.72502 15.8516 7.51408 16.7016 7.47345 16.875C7.41877 17.1031 7.2922 17.1516 7.0547 17.0422C5.4922 16.3156 4.5172 14.0328 4.5172 12.1984C4.5172 8.25625 7.38283 4.63594 12.7766 4.63594C17.1125 4.63594 20.4828 7.725 20.4828 11.8547C20.4828 16.1625 17.7656 19.6297 13.9969 19.6297C12.7297 19.6297 11.5391 18.9719 11.1313 18.1938L10.3531 21.1656C10.0703 22.2516 9.30783 23.6125 8.79845 24.4422C10.5172 24.9736 12.3303 25.1278 14.1141 24.8942C15.8978 24.6606 17.6101 24.0447 19.134 23.0886C20.6579 22.1325 21.9575 20.8588 22.944 19.3544C23.9305 17.85 24.5806 16.1504 24.85 14.3717C25.1193 12.593 25.0016 10.7771 24.5048 9.04805C24.008 7.31902 23.1438 5.7176 21.9714 4.35318C20.7989 2.98876 19.3457 1.8935 17.7111 1.14221C16.0765 0.390924 14.299 0.0013161 12.5 2.51595e-06Z" fill="#21272A"/>
</g>
<defs>
<clipPath id="clip0_1_128">
<rect width="25" height="25" fill="white"/>
</clipPath>
</defs>
</svg>
